<?xml version="1.0" standalone="no"?><svg xmlns="http://www.w3.org/2000/svg" viewBox="0 0 1440 320"><path fill="#4CAF50" fill-opacity="1" d="M0,224L17.1,229.3C34.3,235,69,245,103,208C137.1,171,171,85,206,69.3C240,53,274,107,309,128C342.9,149,377,139,411,128C445.7,117,480,107,514,128C548.6,149,583,203,617,234.7C651.4,267,686,277,720,266.7C754.3,256,789,224,823,208C857.1,192,891,192,926,170.7C960,149,994,107,1029,117.3C1062.9,128,1097,192,1131,202.7C1165.7,213,1200,171,1234,138.7C1268.6,107,1303,85,1337,80C1371.4,75,1406,85,1423,90.7L1440,96L1440,320L1422.9,320C1405.7,320,1371,320,1337,320C1302.9,320,1269,320,1234,320C1200,320,1166,320,1131,320C1097.1,320,1063,320,1029,320C994.3,320,960,320,926,320C891.4,320,857,320,823,320C788.6,320,754,320,720,320C685.7,320,651,320,617,320C582.9,320,549,320,514,320C480,320,446,320,411,320C377.1,320,343,320,309,320C274.3,320,240,320,206,320C171.4,320,137,320,103,320C68.6,320,34,320,17,320L0,320Z"></path></svg>